<svg width="36" height="36" viewBox="0 0 36 36" fill="none" xmlns="http://www.w3.org/2000/svg">
<g clip-path="url(#clip0_15_759)">
<path d="M22.5 0C21.2555 0 20.25 1.00547 20.25 2.25C20.25 3.49453 21.2555 4.5 22.5 4.5H28.3148L14.1609 18.6609C13.282 19.5398 13.282 20.9672 14.1609 21.8461C15.0398 22.725 16.4672 22.725 17.3461 21.8461L31.5 7.68516V13.5C31.5 14.7445 32.5055 15.75 33.75 15.75C34.9945 15.75 36 14.7445 36 13.5V2.25C36 1.00547 34.9945 0 33.75 0H22.5ZM5.625 2.25C2.51719 2.25 0 4.76719 0 7.875V30.375C0 33.4828 2.51719 36 5.625 36H28.125C31.2328 36 33.75 33.4828 33.75 30.375V22.5C33.75 21.2555 32.7445 20.25 31.5 20.25C30.2555 20.25 29.25 21.2555 29.25 22.5V30.375C29.25 30.9937 28.7437 31.5 28.125 31.5H5.625C5.00625 31.5 4.5 30.9937 4.5 30.375V7.875C4.5 7.25625 5.00625 6.75 5.625 6.75H13.5C14.7445 6.75 15.75 5.74453 15.75 4.5C15.75 3.25547 14.7445 2.25 13.5 2.25H5.625Z" fill="#E7F6F2"/>
</g>
<defs>
<clipPath id="clip0_15_759">
<rect width="36" height="36" fill="white"/>
</clipPath>
</defs>
</svg>
