<svg width="72" height="72" viewBox="0 0 72 72" fill="none" xmlns="http://www.w3.org/2000/svg">
<path d="M0 0H72V72H0V0ZM66.102 54.828C65.577 51.543 63.438 48.783 57.093 46.209C54.885 45.174 52.431 44.454 51.702 42.789C51.429 41.799 51.387 41.259 51.564 40.674C52.014 38.736 54.309 38.154 56.109 38.694C57.279 39.054 58.359 39.954 59.037 41.394C62.139 39.366 62.139 39.366 64.302 38.019C63.492 36.759 63.09 36.216 62.544 35.679C60.654 33.564 58.137 32.484 54.042 32.577L51.927 32.844C49.899 33.339 47.967 34.419 46.797 35.859C43.377 39.732 44.364 46.482 48.504 49.272C52.599 52.332 58.587 53.004 59.352 55.887C60.072 59.397 56.742 60.522 53.454 60.117C51.021 59.577 49.674 58.359 48.189 56.109L42.699 59.262C43.329 60.702 44.049 61.329 45.129 62.589C50.349 67.857 63.399 67.587 65.742 59.577C65.829 59.307 66.462 57.462 65.964 54.627L66.102 54.828ZM39.153 33.093H32.409C32.409 38.907 32.382 44.685 32.382 50.508C32.382 54.204 32.571 57.597 31.968 58.641C30.978 60.708 28.428 60.444 27.27 60.081C26.082 59.493 25.479 58.683 24.78 57.516C24.591 57.201 24.45 56.928 24.399 56.928L18.924 60.303C19.839 62.193 21.174 63.819 22.896 64.854C25.461 66.384 28.908 66.879 32.517 66.069C34.866 65.391 36.891 63.996 37.95 61.836C39.48 59.046 39.156 55.626 39.141 51.798C39.177 45.636 39.141 39.471 39.141 33.261L39.153 33.093Z" fill="#E7F6F2"/>
</svg>
